Little Sabine has spent her childhood in an orphanage after her parents died in a car accident.  When one of the women in charge at the orphanage, Edith, leaves to have a baby, Sabine runs away, because Edith was the only adult there she could trust.  She then wanders through the city to find someone to take her in.  She meets a lot of people on her journey, but she seems out of place everywhere she goes until, at last, she realizes that there is a special place where she belongs.

   General
      Complete name : sabine kleist.avi
      Format : AVI
      Format/Info : Audio Video Interleave
      File size : 856 MiB
      Duration : 1h 9mn
      Overall bit rate : 1 722 Kbps
      Writing application : FairUse Wizard - http://fairusewizard.com
      Writing library : The best and REALLY easy backup tool
   Video #0
      ID : 0
      Format : MPEG-4 Visual
      Format profile : AdvancedSimple@L5
      Format settings, BVOP : Yes
      Format settings, QPel : No
      Format settings, GMC : No warppoints
      Format settings, Matrix : Default (MPEG)
      Muxing mode : Packed bitstream
      Codec ID : XVID
      Codec ID/Hint : XviD
      Duration : 1h 9mn
      Bit rate : 1 521 Kbps
      Width : 704 pixels
      Height : 416 pixels
      Display aspect ratio : 1.692
      Frame rate : 25.000 fps
      Resolution : 24 bits
      Colorimetry : 4:2:0
      Scan type : Progressive
      Bits/(Pixel*Frame) : 0.208
      Stream size : 756 MiB (88%)
      Writing library : XviD 1.2.0.dev47 (UTC 2006-11-01)
   Audio #1
      ID : 1
      Format : AC-3
      Format/Info : Audio Coding 3
      Codec ID : 2000
      Duration : 1h 9mn
      Bit rate mode : Constant
      Bit rate : 192 Kbps
      Channel(s) : 2 channels
      Channel positions : L R
      Sampling rate : 48.0 KHz
      Stream size : 95.3 MiB (11%)
      Alignment : Split accross interleaves
      Interleave, duration : 40 ms (1.00 video frame)
      Interleave, preload duration : 500 ms

IMDB: tt0084623

German audio; multilanguage subpack (Arabic, Deutsch, English, Español, Français, Italiano, Japanese, Português, Russian, Turkish, Chinese)

My rip of the Goethe Institut DVD

Helmut Dziuba - Sabine Kleist, sieben Jahre (1982)